********************************************************
 
Alerhab Walkbab 1992 DVDRip X264 ACC - alrmothe

********************************************************

TiTLE: Alerhab Walkbab
YEAR:1992
GENRE :  Drama ,Comedy
elcinema URL : http://www.elcinema.com/work/wk1010305/
SIZE : 1.94 GB
Format : mp4 
Overall bit rate:2397 Kbps
Sub: No 
****************************
cast

Adel Imam ... Ahmed 
Yousra ...Hend
Alaa Walie aldin ... Samir Bassiouni

╪¿╪╖┘ê┘ä╪⌐
╪╣╪º╪»┘ä ╪º┘à╪º┘à ... ╪ú╪¡┘à╪» ┘ü╪¬╪¡ ╪º┘ä╪¿╪º╪¿
┘â┘à╪º┘ä ╪º┘ä╪┤┘å╪º┘ê┘è ...┘ê╪▓┘è╪▒ ╪º┘ä╪»╪º╪«┘ä┘è╪⌐
┘è╪│╪▒╪º... ┘ç┘å╪»
╪╣┘ä╪º╪í ┘ê┘ä┘è ╪º┘ä╪»┘è┘å... ╪│┘à┘è╪▒ ╪¿╪│┘è┘ê┘å┘è
****************************
Video
Format : AVC
Format/Info : Advanced Video Codec
Format profile : High@L3.0
Runtime: 1h 55min 56sec
bit rate: 2200 Kbps
Width: 720 pixels
Height: 422 pixels
Frame rate: 25.752 fps
Bit depth : 8 bits
Bits/(Pixel*Frame) : 0.281
Stream size : 1.78 GiB (92%)

Audio: Arabic
Format: ACC
Bit rate: 192 Kbps
Sampling rate: 48.0 KHz
Channel(s): 2 channels
Stream size : 159 MiB (8%)
Language : Arabic
********************************************************

[color=red]Screenshots[/color]


[img]http://img827.imageshack.us/img827/2134/13867384.png[/img]
[img]http://img585.imageshack.us/img585/5731/23553691.png[/img]
[img]http://img37.imageshack.us/img37/5595/32693997.png[/img]
[img]http://img821.imageshack.us/img821/3886/62232695.png[/img]
[img]http://img17.imageshack.us/img17/7320/screenshotgzi.png[/img]




[code] 
http://121.14.98.151:9090/announce 
http://tracker.ex.ua/announce 
http://tracker.torrentbay.to:6969/announce 
http://exodus.desync.com:6969/announce 
http://94.228.192.98/announce
udp://tracker.istole.it:80/announce
[/code]


You can play movie on PlayStation 3 Media Server






